<?xml version="1.0" standalone="no"?>
<!DOCTYPE svg PUBLIC "-//W3C//DTD SVG 20010904//EN"
 "http://www.w3.org/TR/2001/REC-SVG-20010904/DTD/svg10.dtd">
<svg version="1.0" xmlns="http://www.w3.org/2000/svg"
 width="546.000000pt" height="546.000000pt" viewBox="0 0 546.000000 546.000000"
 preserveAspectRatio="xMidYMid meet">
<metadata>
Created by potrace 1.14, written by Peter Selinger 2001-2017
</metadata>
<g transform="translate(0.000000,546.000000) scale(0.100000,-0.100000)"
fill="#000000" stroke="none">
<path d="M1664 4441 c3 -4 -8 -12 -24 -19 -26 -12 -38 -34 -45 -87 -2 -11 -4
-24 -5 -30 -1 -5 -1 -12 0 -15 7 -18 5 -52 -3 -57 -6 -4 -52 -7 -101 -7 -50
-1 -97 -5 -103 -9 -8 -5 -13 -3 -13 4 0 10 -3 10 -12 1 -7 -7 -24 -12 -38 -12
-15 0 -30 -3 -34 -7 -4 -5 -11 -8 -14 -8 -20 -2 -52 -18 -52 -26 0 -6 -4 -8
-8 -5 -5 3 -21 -6 -37 -20 -15 -13 -32 -24 -37 -24 -5 0 -6 -4 -3 -10 3 -5 1
-10 -5 -10 -6 0 -15 -11 -22 -25 -6 -13 -15 -22 -19 -19 -5 3 -9 -4 -9 -15 0
-12 -4 -21 -9 -21 -5 0 -12 -16 -15 -35 -4 -19 -10 -35 -15 -35 -4 0 -8 -122
-8 -270 0 -149 2 -268 4 -266 3 3 15 -7 27 -21 l22 -25 1494 0 c822 1 1500 1
1507 1 7 1 23 11 37 24 l25 24 -1 271 c-1 150 -5 272 -10 272 -4 0 -8 11 -8
25 0 14 -4 25 -10 25 -5 0 -10 7 -10 15 0 8 -9 24 -20 35 -11 11 -21 23 -22
28 -2 4 -6 6 -10 4 -5 -1 -8 4 -8 10 0 29 -140 105 -199 110 -17 1 -31 6 -31
11 0 5 -7 4 -15 -3 -8 -7 -15 -8 -15 -3 0 6 -37 10 -87 11 -49 0 -94 0 -100 1
-9 1 -12 20 -11 64 3 77 -26 137 -66 137 -9 0 -16 5 -16 11 0 19 -91 -1 -116
-25 -28 -29 -49 -128 -32 -152 5 -7 3 -18 -5 -25 -10 -11 -53 -14 -183 -13
l-169 1 0 66 c0 37 -2 67 -5 67 -3 0 -11 14 -19 31 -14 33 -47 50 -99 54 -24
2 -42 -6 -69 -30 -36 -31 -37 -35 -41 -106 -3 -41 -8 -76 -12 -79 -6 -4 -308
-4 -341 -1 -4 1 -7 33 -8 72 -1 48 -6 76 -16 86 -8 8 -13 18 -10 23 6 10 -49
33 -85 36 -37 3 -100 -35 -107 -66 -3 -14 -11 -28 -17 -32 -8 -5 -7 -8 2 -8 9
0 10 -5 3 -18 -7 -13 -6 -23 2 -32 9 -10 9 -14 -1 -17 -10 -4 -10 -8 -1 -19
19 -23 -19 -29 -188 -27 -87 0 -161 2 -164 2 -3 1 -5 28 -4 61 1 34 -2 63 -7
66 -4 3 -6 9 -3 14 7 11 -33 54 -60 65 -25 10 -96 15 -91 6z m-76 -395 c2 -3
5 -34 5 -68 1 -73 20 -116 62 -137 35 -17 85 -22 85 -9 0 5 5 8 12 6 12 -4 42
27 64 67 6 11 10 48 9 83 l-2 62 36 1 c20 0 75 1 124 2 50 1 89 -2 91 -8 3 -7
7 -7 13 0 10 12 33 13 51 2 6 -5 12 -4 12 2 0 6 7 8 16 4 9 -3 14 -13 11 -24
-3 -10 0 -20 5 -21 7 -3 7 -11 -1 -26 -9 -17 -9 -22 0 -22 9 0 9 -3 0 -14 -8
-10 -9 -16 -1 -21 5 -3 10 -13 10 -21 0 -18 40 -64 57 -64 7 0 13 -3 13 -8 0
-4 16 -7 35 -8 19 0 35 3 35 7 0 4 10 9 23 13 36 9 58 58 58 129 0 35 3 67 7
72 9 13 305 13 314 0 5 -6 8 -5 8 2 0 7 7 10 15 7 11 -5 15 -23 15 -74 0 -38
5 -72 10 -75 6 -4 8 -10 6 -14 -10 -15 52 -64 73 -58 13 3 19 1 14 -6 -4 -7 2
-8 18 -3 13 4 29 8 35 9 39 9 86 85 75 122 -4 12 -4 19 0 65 l3 35 52 -1 c29
-1 57 -5 63 -8 6 -4 11 -4 11 1 0 8 218 8 226 0 3 -2 4 -19 4 -38 0 -19 0 -42
0 -51 -1 -45 3 -67 10 -63 4 3 10 -4 13 -14 2 -10 16 -26 30 -35 27 -19 97
-29 97 -15 0 5 6 9 13 9 41 0 87 100 63 138 -4 6 -3 12 2 12 5 0 8 14 6 31 -2
18 0 28 6 24 6 -3 10 -3 10 2 0 9 168 7 214 -2 38 -8 86 -33 86 -45 0 -6 7
-10 15 -10 8 0 15 -7 15 -15 0 -8 4 -15 10 -15 5 0 12 -16 16 -35 3 -19 10
-38 16 -41 5 -3 4 -12 -3 -20 -9 -11 -9 -14 1 -14 10 0 10 -3 0 -15 -10 -12
-10 -19 -2 -27 8 -8 9 -15 1 -25 -9 -9 -8 -13 0 -13 8 0 9 -5 2 -19 -6 -10 -7
-21 -4 -25 10 -10 12 -36 3 -36 -11 0 -7 -33 5 -43 6 -6 6 -10 -2 -14 -7 -2
-13 -9 -13 -14 0 -6 6 -7 13 -3 8 5 8 2 -2 -9 -10 -13 -10 -17 -1 -17 9 0 9
-4 -1 -17 -9 -11 -10 -14 -2 -9 9 5 11 2 7 -8 -5 -13 -25 -16 -108 -16 -129
-1 -2403 -1 -2556 0 l-116 0 0 185 c0 102 4 185 7 185 7 0 23 50 20 63 -1 5 2
6 7 3 5 -3 15 4 23 15 17 24 70 49 119 56 19 3 36 6 37 7 4 4 166 -4 171 -8z"/>
<path d="M1082 3274 c-12 -8 -22 -12 -22 -7 -1 4 -7 -6 -15 -24 -11 -26 -13
-162 -13 -772 1 -408 5 -741 10 -741 4 0 8 -15 8 -34 0 -19 4 -37 9 -41 6 -3
8 -14 6 -25 -2 -11 0 -20 4 -20 6 0 35 -51 43 -78 15 -45 150 -160 181 -154 4
1 7 -2 7 -6 0 -5 8 -10 18 -12 9 -2 588 -4 1285 -4 1117 -1 1269 1 1277 14 5
8 10 11 10 7 0 -19 129 70 130 89 0 7 7 14 15 18 8 3 15 12 15 20 0 7 7 16 15
20 8 3 15 15 15 26 0 11 4 20 9 20 9 0 26 48 23 63 -1 4 3 7 9 7 5 0 8 4 4 9
-3 5 -1 12 5 16 6 4 8 11 4 16 -3 5 -1 15 4 22 5 7 10 97 10 201 1 104 3 191
5 192 2 2 0 29 -3 59 -3 31 -4 58 -1 60 3 1 4 56 1 120 -3 64 -2 119 3 122 4
2 5 8 2 13 -3 5 -5 180 -5 389 -1 239 -4 381 -10 381 -6 0 -10 7 -10 15 0 8
-9 15 -21 15 -11 0 -18 4 -14 9 7 13 -36 10 -54 -3 -12 -9 -13 -8 -7 4 4 8 0
6 -9 -5 -9 -11 -20 -19 -24 -18 -4 1 -8 -3 -9 -10 -2 -24 -8 -47 -15 -53 -4
-4 -1 -14 6 -22 9 -12 9 -16 -1 -19 -6 -3 -12 -9 -12 -14 0 -6 6 -7 13 -3 9 6
9 4 -1 -8 -10 -13 -10 -17 0 -21 8 -4 9 -8 3 -14 -12 -10 -13 -36 -2 -44 4 -3
3 -17 -2 -32 -7 -18 -7 -27 2 -31 8 -3 9 -7 2 -13 -5 -4 -10 -15 -10 -23 0 -8
5 -18 10 -22 6 -5 4 -12 -5 -18 -13 -9 -13 -10 0 -10 9 0 11 -3 5 -8 -5 -4
-10 -14 -10 -22 0 -8 5 -18 10 -22 7 -5 7 -10 0 -15 -5 -5 -10 -15 -10 -23 0
-8 5 -18 10 -22 7 -5 7 -10 0 -15 -5 -5 -10 -15 -10 -23 0 -8 5 -19 10 -23 6
-6 6 -10 -3 -14 -6 -2 -12 -9 -12 -14 0 -6 6 -7 13 -3 9 6 9 4 -1 -8 -10 -13
-10 -17 0 -21 8 -4 9 -8 3 -14 -12 -10 -15 -54 -3 -47 4 3 8 1 8 -5 0 -5 -6
-11 -12 -14 -10 -3 -10 -7 -1 -17 8 -9 9 -19 2 -32 -7 -13 -6 -18 2 -18 8 0 8
-4 -1 -15 -9 -11 -9 -15 -1 -15 9 0 9 -5 1 -20 -6 -11 -7 -20 -2 -20 4 0 8 -9
8 -20 0 -11 -3 -20 -7 -20 -10 0 -5 -34 6 -43 6 -6 6 -10 -2 -14 -7 -2 -13 -9
-13 -14 0 -6 6 -7 13 -3 9 6 9 4 -1 -8 -10 -13 -10 -17 0 -21 8 -4 9 -8 3 -14
-5 -4 -10 -15 -10 -23 0 -8 5 -19 10 -23 6 -6 6 -10 -2 -14 -7 -2 -13 -9 -13
-14 0 -6 6 -7 13 -3 9 6 9 4 -1 -8 -10 -13 -10 -17 0 -21 8 -4 9 -8 3 -14 -5
-4 -10 -15 -10 -23 0 -8 5 -18 10 -22 6 -5 4 -12 -5 -18 -11 -7 -12 -12 -3
-21 9 -9 9 -18 2 -32 -8 -15 -8 -18 1 -12 9 6 9 2 1 -14 -8 -14 -8 -21 -1 -21
8 0 8 -6 0 -20 -8 -15 -8 -20 2 -20 10 0 10 -2 -1 -9 -11 -7 -11 -9 0 -14 9
-4 10 -8 4 -14 -5 -4 -10 -15 -10 -23 0 -8 5 -18 10 -22 7 -6 7 -11 0 -15 -12
-9 -16 -43 -6 -43 4 0 8 -7 8 -15 0 -8 -4 -12 -8 -9 -4 2 -6 -11 -5 -30 2 -18
-5 -50 -15 -70 -9 -20 -13 -33 -7 -30 5 4 2 -6 -8 -22 -42 -66 -69 -96 -105
-115 -37 -18 -72 -19 -1254 -19 -848 0 -1215 3 -1215 11 0 5 -4 8 -9 5 -9 -6
-56 26 -79 54 -25 30 -53 91 -46 102 4 7 3 8 -4 4 -8 -5 -12 2 -12 22 0 16 -3
32 -7 36 -5 4 -8 336 -8 736 -1 729 -1 729 -22 757 -12 15 -26 27 -32 26 -6
-2 -11 2 -11 7 0 15 -33 12 -58 -6z"/>
<path d="M2925 2910 c-43 -9 -70 -26 -94 -56 -12 -15 -21 -23 -21 -18 0 5 -9
-5 -19 -22 -10 -17 -39 -52 -62 -77 -24 -26 -57 -61 -72 -79 -16 -18 -44 -50
-63 -70 -19 -21 -33 -38 -31 -38 2 0 -16 -21 -40 -46 -43 -46 -44 -46 -61 -28
-10 10 -21 27 -25 37 -3 9 -11 17 -17 17 -5 0 -10 6 -10 13 0 21 -97 130 -110
122 -5 -3 -10 -1 -12 4 -1 6 -14 11 -28 13 -14 2 -31 7 -37 11 -8 5 -13 4 -13
-2 0 -6 -11 -11 -25 -11 -14 0 -33 -6 -41 -12 -31 -26 -74 -71 -75 -79 -3 -19
-5 -24 -10 -34 -22 -38 15 -130 89 -222 9 -11 24 -31 32 -43 8 -12 27 -38 43
-58 15 -19 27 -41 27 -49 0 -8 4 -12 9 -9 8 5 16 -6 20 -26 1 -10 24 -37 70
-83 19 -20 48 -38 70 -42 42 -9 103 -5 111 6 3 5 15 11 27 15 11 4 29 19 39
34 17 26 55 70 121 138 18 19 31 34 28 34 -2 0 17 22 43 49 26 27 65 71 87 97
22 26 55 62 72 81 18 18 30 33 27 33 -3 0 14 19 38 43 56 56 88 95 88 107 0 6
4 10 8 10 10 0 11 6 16 78 2 28 1 52 -3 52 -4 0 -12 13 -18 29 -20 55 -110 96
-178 81z"/>
</g>
</svg>
